<mxfile host="app.diagrams.net" modified="2024-01-17T08:24:56.498Z" agent="Mozilla/5.0 (Windows NT 10.0; Win64; x64) AppleWebKit/537.36 (KHTML, like Gecko) Chrome/120.0.0.0 Safari/537.36" version="22.1.18" etag="DQez3RKWES6SaZArMWXz" type="github">
  <diagram name="Страница — 1" id="SBtE3FbGNlPdMWjpWjgt">
    <mxGraphModel>
      <root>
        <mxCell id="0" />
        <mxCell id="1" parent="0" />
      </root>
    </mxGraphModel>
  </diagram>
</mxfile>
